# Blender v2.79 (sub 0) OBJ File: ''
# www.blender.org
mtllib iapapataller.mtl
o Cube.002_Cube.005
v -0.350041 0.228704 0.338887
v -0.328375 0.349142 0.317220
v -0.462957 0.349142 -0.007692
v -0.350041 0.228705 -0.354270
v -0.493599 0.228704 -0.007692
v -0.340941 0.157066 0.329786
v -0.003463 0.228704 0.482445
v -0.003463 0.349142 0.451803
v -0.320281 0.464684 0.309127
v -0.451511 0.464684 -0.007692
v -0.328375 0.349142 -0.332604
v -0.003463 0.349142 -0.467186
v -0.480729 0.157066 -0.007692
v -0.320281 0.463301 -0.324510
v -0.576634 0.023946 0.019273
v -0.003463 0.157066 0.469574
v 0.343116 0.228704 0.338887
v 0.321449 0.349142 0.317220
v -0.003463 0.464684 0.440357
v -0.288634 0.583679 0.277479
v -0.003463 0.228705 -0.497828
v 0.321449 0.349142 -0.332604
v -0.340941 0.157066 -0.345170
v -0.413642 0.023946 -0.374227
v -0.406755 0.583679 -0.007692
v -0.020142 0.023946 0.575765
v -0.413642 0.023946 0.412772
v -0.020142 0.023808 -0.567773
v 0.334015 0.157066 0.329786
v 0.486674 0.228704 -0.007692
v 0.456033 0.349142 -0.007692
v 0.313356 0.464684 0.309127
v -0.003463 0.583679 0.395601
v -0.306149 0.731646 0.001945
v -0.217729 0.766135 0.204784
v 0.343116 0.228705 -0.354270
v 0.334015 0.157066 -0.345170
v -0.003463 0.157066 -0.484958
v -0.003463 0.464684 -0.455741
v 0.313356 0.464684 -0.324510
v -0.288634 0.583680 -0.292863
v -0.003463 0.583680 -0.410984
v 0.407376 0.009342 -0.330972
v 0.473804 0.157066 -0.007692
v 0.536350 0.023946 0.019273
v 0.373357 0.023946 0.412772
v 0.444587 0.464684 -0.007692
v 0.281709 0.583679 0.277479
v -0.019293 0.745624 0.288743
v -0.339877 0.665014 -0.001964
v -0.243045 0.665014 -0.235738
v -0.019293 0.749309 -0.284892
v -0.198012 0.769037 -0.209524
v 0.224503 0.665014 0.231809
v 0.399831 0.583679 -0.007692
v 0.183291 0.770026 0.204529
v -0.009271 0.665014 0.328641
v -0.243045 0.665014 0.231809
v -0.314174 2.504822 -0.000479
v -0.224489 2.503403 0.216068
v -0.155254 2.764062 0.141152
v 0.281709 0.583680 -0.292863
v -0.213911 2.765051 -0.000479
v -0.155254 2.764062 -0.142110
v 0.267525 0.767024 0.001945
v -0.007970 2.499979 0.305764
v -0.013643 2.761678 0.199818
v -0.084009 2.851833 0.070837
v 0.183033 0.769026 -0.199692
v -0.224489 2.503403 -0.217025
v 0.036281 2.499371 -0.313125
v 0.208550 2.496555 0.216068
v -0.013643 2.761678 -0.200775
v -0.113528 2.852934 -0.000479
v -0.084009 2.851833 -0.071794
v 0.127968 2.759294 0.141152
v -0.012743 2.849175 0.100377
v -0.015605 2.885910 -0.000479
v 0.127968 2.759294 -0.142110
v 0.224503 0.665014 -0.235738
v 0.321335 0.665014 -0.001964
v -0.009271 0.665014 -0.332570
v -0.012743 2.849175 -0.101334
v 0.298235 2.495136 -0.000479
v 0.186625 2.758305 -0.000479
v 0.058523 2.846519 0.070837
v 0.208550 2.496555 -0.217025
v 0.058523 2.846519 -0.071794
v 0.096044 2.848007 -0.000479
vt 0.676378 0.118018
vt 0.668388 0.143454
vt 0.578842 0.118883
vt 0.493078 0.082572
vt 0.583239 0.095143
vt 0.682065 0.100390
vt 0.772947 0.149232
vt 0.768545 0.180336
vt 0.662193 0.163142
vt 0.575100 0.138620
vt 0.491291 0.107795
vt 0.407249 0.105370
vt 0.586675 0.078549
vt 0.489783 0.127041
vt 0.591806 0.031524
vt 0.774336 0.130218
vt 0.054390 0.160054
vt 0.144171 0.128109
vt 0.152788 0.152125
vt 0.758255 0.202947
vt 0.653810 0.186502
vt 0.407136 0.081709
vt 0.324202 0.110276
vt 0.494396 0.066756
vt 0.494472 0.022998
vt 0.570307 0.161577
vt 0.807113 0.446821
vt 0.749546 0.446821
vt 0.752267 0.314412
vt 0.694202 0.050263
vt 0.139166 0.112218
vt 0.233482 0.101908
vt 0.238807 0.124858
vt 0.159713 0.170790
vt 0.068985 0.211352
vt 0.741170 0.227341
vt 0.322122 0.086519
vt 0.320182 0.070908
vt 0.406832 0.067659
vt 0.407456 0.123655
vt 0.326387 0.129232
vt 0.406061 0.032330
vt 0.487743 0.148690
vt 0.407712 0.146076
vt 0.318466 0.027416
vt 0.229594 0.084480
vt 0.222244 0.039332
vt 0.124918 0.064598
vt 0.052870 0.144300
vt 0.243290 0.143874
vt 0.168486 0.193044
vt 0.085736 0.234438
vt 0.559075 0.204968
vt 0.482931 0.193334
vt 0.187206 0.233741
vt 0.248879 0.165996
vt 0.709072 0.266234
vt 0.635518 0.229045
vt 0.862487 0.628308
vt 0.886323 0.588729
vt 0.927337 0.635116
vt 0.329057 0.150506
vt 0.904078 0.655673
vt 0.890900 0.677894
vt 0.923184 0.543170
vt 0.968963 0.619169
vt 0.939533 0.666365
vt 0.560420 0.651302
vt 0.849044 0.667121
vt 0.844329 0.703202
vt 0.582810 0.899684
vt 0.887258 0.816338
vt 0.935982 0.863133
vt 0.886500 0.701353
vt 0.922421 0.674614
vt 0.912867 0.687289
vt 0.929595 0.767508
vt 0.965403 0.667455
vt 0.940817 0.700952
vt 0.580964 0.508030
vt 0.890376 0.725060
vt 0.578621 0.441926
vt 0.333593 0.193147
vt 0.260291 0.209292
vt 0.540506 0.568852
vt 0.407876 0.186660
vt 0.909594 0.701715
vt 0.860491 0.776365
vt 0.903607 0.748202
vt 0.973273 0.777112
vt 0.939430 0.736572
vt 0.848345 0.739039
vt 0.912661 0.716223
vt 0.921843 0.729790
vt 0.962784 0.733488
vt 0.561243 0.767641
vt 0.536499 0.701318
vt 0.553274 0.836721
vt 0.347912 0.290186
vt 0.290132 0.317724
vt 0.226590 0.325255
vt 0.410388 0.296449
vt 0.117466 0.271454
vt 0.473171 0.290216
vt 0.648328 0.359697
vt 0.595413 0.322382
vt 0.533440 0.309215
vt 0.058872 0.189369
vt 0.708840 0.348548
vt 0.708839 0.406115
vt 0.807113 0.307841
vt 0.847819 0.348548
vt 0.847819 0.406115
vt 0.799957 0.086818
vt 0.026464 0.104415
vt 0.578219 0.971305
vt 0.176029 0.363276
vn -0.7067 0.0340 0.7067
vn -0.6960 0.1763 0.6960
vn -0.9843 0.1763 -0.0001
vn -0.7067 0.0340 -0.7067
vn -0.9994 0.0340 0.0000
vn -0.6825 0.2830 0.6739
vn -0.0000 0.0340 0.9994
vn 0.0000 0.1763 0.9843
vn -0.6897 0.2205 0.6897
vn -0.9753 0.2207 -0.0004
vn -0.6960 0.1768 -0.6960
vn -0.0001 0.1763 -0.9843
vn -0.9702 0.2412 -0.0234
vn -0.6899 0.2194 -0.6899
vn -0.9228 -0.3840 0.0304
vn 0.0140 0.2717 0.9623
vn 0.7067 0.0340 0.7067
vn 0.6960 0.1763 0.6960
vn 0.0000 0.2205 0.9754
vn -0.6214 0.4771 0.6215
vn -0.0000 0.0340 -0.9994
vn 0.6960 0.1763 -0.6960
vn -0.6870 0.1813 -0.7037
vn -0.6778 -0.4374 -0.5910
vn -0.8752 0.4837 -0.0041
vn -0.0181 -0.3655 0.9306
vn -0.6545 -0.3589 0.6655
vn -0.0175 -0.4139 -0.9102
vn 0.7102 0.2123 0.6712
vn 0.9994 0.0340 0.0000
vn 0.9843 0.1763 0.0000
vn 0.6897 0.2205 0.6897
vn 0.0038 0.4841 0.8750
vn 0.7067 0.0340 -0.7067
vn 0.6925 0.0674 -0.7182
vn 0.0152 0.2048 -0.9787
vn -0.0004 0.2207 -0.9753
vn 0.6897 0.2205 -0.6897
vn -0.6099 0.4974 -0.6169
vn 0.0029 0.5128 -0.8585
vn 0.6651 -0.5577 -0.4966
vn 0.9897 0.1420 -0.0194
vn 0.8880 -0.4573 0.0484
vn 0.6214 -0.4025 0.6722
vn 0.9754 0.2205 -0.0000
vn 0.6161 0.4994 0.6091
vn -0.8324 0.5541 -0.0031
vn -0.5934 0.5728 -0.5655
vn 0.5807 0.5660 0.5852
vn 0.8583 0.5131 -0.0032
vn -0.0018 0.5468 0.8372
vn -0.6091 0.5063 0.6104
vn -0.9854 0.1705 -0.0016
vn -0.6940 0.1745 0.6985
vn -0.5881 0.5499 0.5931
vn 0.6047 0.5184 -0.6047
vn -0.8365 0.5480 0.0000
vn -0.5881 0.5499 -0.5931
vn 0.0049 0.1780 0.9840
vn 0.0049 0.5541 0.8324
vn -0.3650 0.8439 0.3931
vn -0.6624 0.2163 -0.7173
vn -0.6842 0.1677 -0.7098
vn 0.0872 0.1806 -0.9797
vn 0.6797 0.2169 0.7007
vn 0.6981 0.1804 0.6929
vn -0.0112 0.5655 -0.8247
vn -0.5325 0.8464 0.0000
vn -0.3650 0.8439 -0.3931
vn 0.5884 0.5518 0.5910
vn 0.0268 0.8387 0.5440
vn 0.0117 0.9999 -0.0000
vn -0.6960 0.1743 0.6966
vn 0.5931 0.5628 -0.5757
vn -0.0224 0.2500 0.9680
vn 0.5620 0.6102 -0.5584
vn 0.7981 0.6025 0.0037
vn -0.9626 0.2699 -0.0228
vn 0.0001 0.6048 -0.7964
vn 0.0268 0.8387 -0.5440
vn 0.9835 0.1808 -0.0002
vn 0.8420 0.5395 0.0000
vn 0.3711 0.8359 0.4043
vn 0.7355 0.1803 -0.6531
vn 0.3711 0.8359 -0.4043
vn 0.5492 0.8357 0.0000
vn 0.6832 0.2410 -0.6893
vn -0.0166 0.2787 -0.9602
vn 0.9686 0.2485 0.0030
usemtl Material.049
s 1
f 1/1/1 2/2/2 3/3/3
f 4/4/4 5/5/5 3/3/3
f 6/6/6 1/1/1 5/5/5
f 7/7/7 8/8/8 2/2/2
f 2/2/2 9/9/9 10/10/10
f 4/4/4 11/11/11 12/12/12
f 13/13/13 5/5/5 4/4/4
f 3/3/3 10/10/10 14/14/14
f 6/6/6 13/13/13 15/15/15
f 16/16/16 7/7/7 1/1/1
f 7/17/7 17/18/17 18/19/18
f 8/8/8 19/20/19 9/9/9
f 10/10/10 9/9/9 20/21/20
f 21/22/21 12/12/12 22/23/22
f 23/24/23 4/4/4 21/22/21
f 12/12/12 11/11/11 14/14/14
f 13/13/13 23/24/23 24/25/24
f 14/14/14 10/10/10 25/26/25
f 26/27/26 27/28/27 28/29/28
f 16/16/16 6/6/6 27/30/27
f 29/31/29 17/18/17 7/17/7
f 17/18/17 30/32/30 31/33/31
f 18/19/18 32/34/32 19/35/19
f 9/9/9 19/20/19 33/36/33
f 36/37/34 22/23/22 31/33/31
f 37/38/35 38/39/36 21/22/21
f 12/12/12 39/40/37 40/41/38
f 23/24/23 38/39/36 28/42/28
f 14/14/14 41/43/39 42/44/40
f 28/42/28 38/39/36 37/38/35
f 43/45/41 37/38/35 44/46/42
f 45/47/43 44/46/42 29/31/29
f 46/48/44 29/31/29 16/49/16
f 44/46/42 30/32/30 17/18/17
f 18/19/18 31/33/31 47/50/45
f 32/34/32 48/51/46 33/52/33
f 25/26/25 50/53/47 51/54/48
f 44/46/42 37/38/35 36/37/34
f 31/33/31 22/23/22 40/41/38
f 40/41/38 39/40/37 42/44/40
f 33/52/33 48/51/46 54/55/49
f 47/50/45 55/56/50 48/51/46
f 33/36/33 57/57/51 58/58/52
f 59/59/53 60/60/54 61/61/55
f 40/41/38 62/62/56 55/56/50
f 59/59/53 63/63/57 64/64/58
f 60/60/54 66/65/59 67/66/60
f 63/63/57 61/61/55 68/67/61
f 53/68/62 70/69/63 71/70/64
f 56/71/65 72/72/66 66/73/59
f 70/69/63 64/64/58 73/74/67
f 63/63/57 74/75/68 75/76/69
f 66/73/59 72/72/66 76/77/70
f 61/61/55 67/66/60 77/78/71
f 78/79/72 74/75/68 68/67/61
f 35/80/73 60/60/54 59/59/53
f 71/70/64 73/74/67 79/81/74
f 35/80/73 49/82/75 66/65/59
f 62/62/56 80/83/76 81/84/77
f 53/68/62 34/85/78 59/59/53
f 42/44/40 82/86/79 80/83/76
f 64/64/58 75/76/69 83/87/80
f 75/76/69 74/75/68 78/79/72
f 72/72/66 84/88/81 85/89/82
f 67/90/60 76/77/70 86/91/83
f 77/78/71 78/79/72 68/67/61
f 87/92/84 79/81/74 85/89/82
f 73/74/67 83/87/80 88/93/85
f 83/87/80 75/76/69 78/79/72
f 76/77/70 85/89/82 89/94/86
f 78/79/72 77/95/71 86/91/83
f 79/81/74 88/93/85 89/94/86
f 88/93/85 83/87/80 78/79/72
f 89/94/86 78/79/72 86/91/83
f 89/94/86 88/93/85 78/79/72
f 42/44/40 41/43/39 51/54/48
f 69/96/87 52/97/88 71/70/64
f 69/96/87 87/92/84 84/88/81
f 56/71/65 65/98/89 84/88/81
f 48/51/46 55/56/50 81/84/77
f 20/21/20 58/58/52 50/53/47
f 81/84/77 80/83/76 69/99/87
f 81/84/77 65/100/89 56/101/65
f 82/86/79 52/102/88 69/99/87
f 57/103/51 54/55/49 56/101/65
f 82/86/79 51/54/48 53/104/62
f 57/57/51 49/105/75 35/106/73
f 50/53/47 34/107/78 53/104/62
f 50/53/47 58/58/52 35/106/73
f 5/5/5 1/1/1 3/3/3
f 11/11/11 4/4/4 3/3/3
f 13/13/13 6/6/6 5/5/5
f 1/1/1 7/7/7 2/2/2
f 3/3/3 2/2/2 10/10/10
f 21/22/21 4/4/4 12/12/12
f 23/24/23 13/13/13 4/4/4
f 11/11/11 3/3/3 14/14/14
f 27/30/27 6/6/6 15/15/15
f 6/6/6 16/16/16 1/1/1
f 8/108/8 7/17/7 18/19/18
f 2/2/2 8/8/8 9/9/9
f 25/26/25 10/10/10 20/21/20
f 36/37/34 21/22/21 22/23/22
f 38/39/36 23/24/23 21/22/21
f 39/40/37 12/12/12 14/14/14
f 15/15/15 13/13/13 24/25/24
f 41/43/39 14/14/14 25/26/25
f 24/109/24 28/29/28 15/110/15
f 43/111/41 45/112/43 28/29/28
f 46/113/44 26/27/26 28/29/28
f 27/28/27 15/110/15 28/29/28
f 28/29/28 45/112/43 46/113/44
f 26/114/26 16/16/16 27/30/27
f 16/49/16 29/31/29 7/17/7
f 18/19/18 17/18/17 31/33/31
f 8/108/8 18/19/18 19/35/19
f 20/21/20 9/9/9 33/36/33
f 30/32/30 36/37/34 31/33/31
f 36/37/34 37/38/35 21/22/21
f 22/23/22 12/12/12 40/41/38
f 24/25/24 23/24/23 28/42/28
f 39/40/37 14/14/14 42/44/40
f 43/45/41 28/42/28 37/38/35
f 45/47/43 43/45/41 44/46/42
f 46/48/44 45/47/43 29/31/29
f 26/115/26 46/48/44 16/49/16
f 29/31/29 44/46/42 17/18/17
f 32/34/32 18/19/18 47/50/45
f 19/35/19 32/34/32 33/52/33
f 41/43/39 25/26/25 51/54/48
f 30/32/30 44/46/42 36/37/34
f 47/50/45 31/33/31 40/41/38
f 62/62/56 40/41/38 42/44/40
f 57/103/51 33/52/33 54/55/49
f 32/34/32 47/50/45 48/51/46
f 20/21/20 33/36/33 58/58/52
f 63/63/57 59/59/53 61/61/55
f 47/50/45 40/41/38 55/56/50
f 70/69/63 59/59/53 64/64/58
f 61/61/55 60/60/54 67/66/60
f 74/75/68 63/63/57 68/67/61
f 52/97/88 53/68/62 71/70/64
f 49/116/75 56/71/65 66/73/59
f 71/70/64 70/69/63 73/74/67
f 64/64/58 63/63/57 75/76/69
f 67/90/60 66/73/59 76/77/70
f 68/67/61 61/61/55 77/78/71
f 34/85/78 35/80/73 59/59/53
f 87/92/84 71/70/64 79/81/74
f 60/60/54 35/80/73 66/65/59
f 55/56/50 62/62/56 81/84/77
f 70/69/63 53/68/62 59/59/53
f 62/62/56 42/44/40 80/83/76
f 73/74/67 64/64/58 83/87/80
f 76/77/70 72/72/66 85/89/82
f 77/95/71 67/90/60 86/91/83
f 84/88/81 87/92/84 85/89/82
f 79/81/74 73/74/67 88/93/85
f 86/91/83 76/77/70 89/94/86
f 85/89/82 79/81/74 89/94/86
f 82/86/79 42/44/40 51/54/48
f 87/92/84 69/96/87 71/70/64
f 65/98/89 69/96/87 84/88/81
f 72/72/66 56/71/65 84/88/81
f 54/55/49 48/51/46 81/84/77
f 25/26/25 20/21/20 50/53/47
f 65/100/89 81/84/77 69/99/87
f 54/55/49 81/84/77 56/101/65
f 80/83/76 82/86/79 69/99/87
f 49/117/75 57/103/51 56/101/65
f 52/102/88 82/86/79 53/104/62
f 58/58/52 57/57/51 35/106/73
f 51/54/48 50/53/47 53/104/62
f 34/107/78 50/53/47 35/106/73
